# xmcd
#
# Track frame offsets:
#	150
#	12465
#	24922
#	36222
#	45687
#	59162
#	70845
#	87585
#	100065
#	110802
#	124250
#	137675
#	149142
#	160010
#	171457
#	183177
#	194917
#	206352
#	220930
#	233990
#	246855
#	257172
#	271105
#	283530
#	294620
#
# Disc length: 4106 seconds
#
# Revision: 2
# Processed by: cddbd v1.5.2PL0 Copyright (c) Steve Scherf et al.
# Submitted via: audiograbber 1.83.01
#
DISCID=8d100819
DTITLE=Various Artist - Country Instumental (I love Country)
DYEAR=1990
DGENRE=Country
TTITLE0=Lloyd Green - San Antonio rose
TTITLE1=Scotty Moore - Don't
TTITLE2=Sonny James - Vaya con dios
TTITLE3=Lloyd Green - Crying time
TTITLE4=Charlie McCoy - Shenandoah
TTITLE5=Lloyd Green - I can see clearly now
TTITLE6=Charlie McCoy - Orange blossom special
TTITLE7=Boots Randolph - Sweet Georgia Brown
TTITLE8=Sonny James - For the good times
TTITLE9=Lloyd Green - I can help
TTITLE10=Grady Martin - El Paso
TTITLE11=Boots Randolph - Autumn leaves
TTITLE12=Scotty Moore - Milk cow blues
TTITLE13=Sonny James - Paper roses
TTITLE14=Charlie McCoy - Amazing grace
TTITLE15=Mother Maybelle Carter - Release me
TTITLE16=The Earl Scruggs Review - Landslide
TTITLE17=Jerry Byrd - Danny boy
TTITLE18=Boots Randolph - Sentimental journey
TTITLE19=Curly Chalker - These boots are made for walking
TTITLE20=Lester Flatt and Earl Scruggs - Earl's breakdown
TTITLE21=Harold Bradley - Misty
TTITLE22=Josh Graves - Skokiaan
TTITLE23=West Coast - Stand by your man
TTITLE24=Boots Randolph - Stormy weather
EXTD=
EXTT0=
EXTT1=
EXTT2=
EXTT3=
EXTT4=
EXTT5=
EXTT6=
EXTT7=
EXTT8=
EXTT9=
EXTT10=
EXTT11=
EXTT12=
EXTT13=
EXTT14=
EXTT15=
EXTT16=
EXTT17=
EXTT18=
EXTT19=
EXTT20=
EXTT21=
EXTT22=
EXTT23=
EXTT24=
PLAYORDER=
